<mxfile host="app.diagrams.net" modified="2023-06-20T19:44:38.969Z" agent="Mozilla/5.0 (Windows NT 10.0; Win64; x64) AppleWebKit/537.36 (KHTML, like Gecko) Chrome/114.0.0.0 Safari/537.36" etag="dF1U3Yd-O4uhLPJB_p8p" version="21.5.0" type="google">
  <diagram id="R2lEEEUBdFMjLlhIrx00" name="Page-1">
    <mxGraphModel grid="1" page="1" gridSize="10" guides="1" tooltips="1" connect="1" arrows="1" fold="1" pageScale="1" pageWidth="850" pageHeight="1100" math="0" shadow="0" extFonts="Permanent Marker^https://fonts.googleapis.com/css?family=Permanent+Marker">
      <root>
        <mxCell id="0" />
        <mxCell id="1" parent="0" />
        <mxCell id="Tf0zhp-P4J0OVbs3-sou-27" value="" style="edgeStyle=orthogonalEdgeStyle;rounded=0;orthogonalLoop=1;jettySize=auto;html=1;" edge="1" parent="1" source="Tf0zhp-P4J0OVbs3-sou-1" target="Tf0zhp-P4J0OVbs3-sou-26">
          <mxGeometry relative="1" as="geometry">
            <Array as="points">
              <mxPoint x="-32" y="-170" />
              <mxPoint x="-32" y="-190" />
            </Array>
          </mxGeometry>
        </mxCell>
        <mxCell id="Tf0zhp-P4J0OVbs3-sou-67" style="edgeStyle=orthogonalEdgeStyle;rounded=0;orthogonalLoop=1;jettySize=auto;html=1;" edge="1" parent="1" source="Tf0zhp-P4J0OVbs3-sou-1" target="Tf0zhp-P4J0OVbs3-sou-28">
          <mxGeometry relative="1" as="geometry">
            <mxPoint x="90" y="30" as="targetPoint" />
            <Array as="points">
              <mxPoint x="-32" y="-170" />
              <mxPoint x="-32" y="-140" />
            </Array>
          </mxGeometry>
        </mxCell>
        <mxCell id="050VsRDfMynRpV53Ze59-16" style="edgeStyle=orthogonalEdgeStyle;rounded=0;orthogonalLoop=1;jettySize=auto;html=1;" edge="1" parent="1" source="Tf0zhp-P4J0OVbs3-sou-1" target="Tf0zhp-P4J0OVbs3-sou-30">
          <mxGeometry relative="1" as="geometry">
            <Array as="points">
              <mxPoint x="60" y="-103" />
            </Array>
          </mxGeometry>
        </mxCell>
        <mxCell id="050VsRDfMynRpV53Ze59-46" style="edgeStyle=orthogonalEdgeStyle;rounded=0;orthogonalLoop=1;jettySize=auto;html=1;" edge="1" parent="1" source="Tf0zhp-P4J0OVbs3-sou-1" target="Tf0zhp-P4J0OVbs3-sou-54">
          <mxGeometry relative="1" as="geometry">
            <Array as="points">
              <mxPoint x="60" y="-60" />
            </Array>
          </mxGeometry>
        </mxCell>
        <mxCell id="050VsRDfMynRpV53Ze59-48" style="edgeStyle=orthogonalEdgeStyle;rounded=0;orthogonalLoop=1;jettySize=auto;html=1;" edge="1" parent="1" source="Tf0zhp-P4J0OVbs3-sou-1" target="Tf0zhp-P4J0OVbs3-sou-66">
          <mxGeometry relative="1" as="geometry">
            <Array as="points">
              <mxPoint x="60" y="-90" />
              <mxPoint x="115" y="-90" />
            </Array>
          </mxGeometry>
        </mxCell>
        <mxCell id="050VsRDfMynRpV53Ze59-51" style="edgeStyle=orthogonalEdgeStyle;rounded=0;orthogonalLoop=1;jettySize=auto;html=1;" edge="1" parent="1" source="Tf0zhp-P4J0OVbs3-sou-1" target="050VsRDfMynRpV53Ze59-37">
          <mxGeometry relative="1" as="geometry">
            <Array as="points">
              <mxPoint x="60" y="-70" />
              <mxPoint x="60" y="-70" />
            </Array>
          </mxGeometry>
        </mxCell>
        <mxCell id="Tf0zhp-P4J0OVbs3-sou-1" value="Ficha de Clientes" style="rounded=0;whiteSpace=wrap;html=1;" vertex="1" parent="1">
          <mxGeometry x="30" y="-200" width="120" height="60" as="geometry" />
        </mxCell>
        <mxCell id="Tf0zhp-P4J0OVbs3-sou-24" value="" style="edgeStyle=orthogonalEdgeStyle;rounded=0;orthogonalLoop=1;jettySize=auto;html=1;" edge="1" parent="1" source="Tf0zhp-P4J0OVbs3-sou-2" target="Tf0zhp-P4J0OVbs3-sou-13">
          <mxGeometry relative="1" as="geometry" />
        </mxCell>
        <mxCell id="050VsRDfMynRpV53Ze59-147" style="edgeStyle=orthogonalEdgeStyle;rounded=0;orthogonalLoop=1;jettySize=auto;html=1;entryX=0;entryY=0.5;entryDx=0;entryDy=0;" edge="1" parent="1" source="Tf0zhp-P4J0OVbs3-sou-2" target="050VsRDfMynRpV53Ze59-90">
          <mxGeometry relative="1" as="geometry" />
        </mxCell>
        <mxCell id="050VsRDfMynRpV53Ze59-149" style="edgeStyle=orthogonalEdgeStyle;rounded=0;orthogonalLoop=1;jettySize=auto;html=1;" edge="1" parent="1" source="Tf0zhp-P4J0OVbs3-sou-2" target="050VsRDfMynRpV53Ze59-138">
          <mxGeometry relative="1" as="geometry">
            <Array as="points">
              <mxPoint x="640" y="325" />
              <mxPoint x="640" y="390" />
            </Array>
          </mxGeometry>
        </mxCell>
        <mxCell id="050VsRDfMynRpV53Ze59-151" style="edgeStyle=orthogonalEdgeStyle;rounded=0;orthogonalLoop=1;jettySize=auto;html=1;" edge="1" parent="1" source="Tf0zhp-P4J0OVbs3-sou-2" target="050VsRDfMynRpV53Ze59-146">
          <mxGeometry relative="1" as="geometry">
            <Array as="points">
              <mxPoint x="640" y="325" />
              <mxPoint x="640" y="433" />
            </Array>
          </mxGeometry>
        </mxCell>
        <mxCell id="050VsRDfMynRpV53Ze59-152" style="edgeStyle=orthogonalEdgeStyle;rounded=0;orthogonalLoop=1;jettySize=auto;html=1;entryX=0;entryY=0.5;entryDx=0;entryDy=0;" edge="1" parent="1" source="Tf0zhp-P4J0OVbs3-sou-2" target="Tf0zhp-P4J0OVbs3-sou-42">
          <mxGeometry relative="1" as="geometry">
            <Array as="points">
              <mxPoint x="640" y="325" />
              <mxPoint x="640" y="477" />
            </Array>
          </mxGeometry>
        </mxCell>
        <mxCell id="Tf0zhp-P4J0OVbs3-sou-2" value="Registro de Servicios Contratados" style="rounded=0;whiteSpace=wrap;html=1;" vertex="1" parent="1">
          <mxGeometry x="435" y="295" width="120" height="60" as="geometry" />
        </mxCell>
        <mxCell id="Tf0zhp-P4J0OVbs3-sou-81" style="edgeStyle=orthogonalEdgeStyle;rounded=0;orthogonalLoop=1;jettySize=auto;html=1;entryX=0.5;entryY=0;entryDx=0;entryDy=0;" edge="1" parent="1" source="Tf0zhp-P4J0OVbs3-sou-3" target="Tf0zhp-P4J0OVbs3-sou-44">
          <mxGeometry relative="1" as="geometry">
            <Array as="points">
              <mxPoint x="595" y="560" />
              <mxPoint x="745" y="560" />
            </Array>
          </mxGeometry>
        </mxCell>
        <mxCell id="050VsRDfMynRpV53Ze59-137" style="edgeStyle=orthogonalEdgeStyle;rounded=0;orthogonalLoop=1;jettySize=auto;html=1;entryX=0.5;entryY=0;entryDx=0;entryDy=0;" edge="1" parent="1" source="Tf0zhp-P4J0OVbs3-sou-3" target="w2UQ4sJbIjtqVQUFdgOp-2">
          <mxGeometry relative="1" as="geometry">
            <Array as="points">
              <mxPoint x="595" y="560" />
              <mxPoint x="805" y="560" />
            </Array>
          </mxGeometry>
        </mxCell>
        <mxCell id="050VsRDfMynRpV53Ze59-145" style="edgeStyle=orthogonalEdgeStyle;rounded=0;orthogonalLoop=1;jettySize=auto;html=1;entryX=0.5;entryY=0;entryDx=0;entryDy=0;" edge="1" parent="1" source="Tf0zhp-P4J0OVbs3-sou-3" target="050VsRDfMynRpV53Ze59-143">
          <mxGeometry relative="1" as="geometry">
            <Array as="points">
              <mxPoint x="595" y="560" />
              <mxPoint x="685" y="560" />
            </Array>
          </mxGeometry>
        </mxCell>
        <mxCell id="Tf0zhp-P4J0OVbs3-sou-3" value="Servicios Contratables" style="rounded=0;whiteSpace=wrap;html=1;" vertex="1" parent="1">
          <mxGeometry x="500" y="485" width="120" height="60" as="geometry" />
        </mxCell>
        <mxCell id="Tf0zhp-P4J0OVbs3-sou-73" style="edgeStyle=orthogonalEdgeStyle;rounded=0;orthogonalLoop=1;jettySize=auto;html=1;entryX=0;entryY=0.5;entryDx=0;entryDy=0;" edge="1" parent="1" source="Tf0zhp-P4J0OVbs3-sou-5" target="Tf0zhp-P4J0OVbs3-sou-36">
          <mxGeometry relative="1" as="geometry">
            <Array as="points">
              <mxPoint x="520" y="170" />
              <mxPoint x="520" y="110" />
            </Array>
          </mxGeometry>
        </mxCell>
        <mxCell id="Tf0zhp-P4J0OVbs3-sou-74" style="edgeStyle=orthogonalEdgeStyle;rounded=0;orthogonalLoop=1;jettySize=auto;html=1;entryX=0;entryY=0.5;entryDx=0;entryDy=0;" edge="1" parent="1" source="Tf0zhp-P4J0OVbs3-sou-5" target="Tf0zhp-P4J0OVbs3-sou-38">
          <mxGeometry relative="1" as="geometry">
            <Array as="points">
              <mxPoint x="520" y="170" />
              <mxPoint x="520" y="70" />
            </Array>
          </mxGeometry>
        </mxCell>
        <mxCell id="Tf0zhp-P4J0OVbs3-sou-75" style="edgeStyle=orthogonalEdgeStyle;rounded=0;orthogonalLoop=1;jettySize=auto;html=1;" edge="1" parent="1" source="Tf0zhp-P4J0OVbs3-sou-5" target="Tf0zhp-P4J0OVbs3-sou-39">
          <mxGeometry relative="1" as="geometry">
            <mxPoint x="530" y="70" as="targetPoint" />
            <Array as="points">
              <mxPoint x="520" y="170" />
              <mxPoint x="520" y="30" />
            </Array>
          </mxGeometry>
        </mxCell>
        <mxCell id="Tf0zhp-P4J0OVbs3-sou-76" style="edgeStyle=orthogonalEdgeStyle;rounded=0;orthogonalLoop=1;jettySize=auto;html=1;entryX=0;entryY=0.5;entryDx=0;entryDy=0;" edge="1" parent="1" source="Tf0zhp-P4J0OVbs3-sou-5" target="Tf0zhp-P4J0OVbs3-sou-37">
          <mxGeometry relative="1" as="geometry">
            <Array as="points">
              <mxPoint x="520" y="170" />
              <mxPoint x="520" y="150" />
            </Array>
          </mxGeometry>
        </mxCell>
        <mxCell id="050VsRDfMynRpV53Ze59-131" style="edgeStyle=orthogonalEdgeStyle;rounded=0;orthogonalLoop=1;jettySize=auto;html=1;" edge="1" parent="1" source="Tf0zhp-P4J0OVbs3-sou-5" target="050VsRDfMynRpV53Ze59-128">
          <mxGeometry relative="1" as="geometry">
            <Array as="points">
              <mxPoint x="520" y="170" />
              <mxPoint x="520" y="200" />
              <mxPoint x="589" y="200" />
            </Array>
          </mxGeometry>
        </mxCell>
        <mxCell id="050VsRDfMynRpV53Ze59-132" style="edgeStyle=orthogonalEdgeStyle;rounded=0;orthogonalLoop=1;jettySize=auto;html=1;" edge="1" parent="1" source="Tf0zhp-P4J0OVbs3-sou-5" target="050VsRDfMynRpV53Ze59-129">
          <mxGeometry relative="1" as="geometry">
            <Array as="points">
              <mxPoint x="520" y="170" />
            </Array>
          </mxGeometry>
        </mxCell>
        <mxCell id="050VsRDfMynRpV53Ze59-135" style="edgeStyle=orthogonalEdgeStyle;rounded=0;orthogonalLoop=1;jettySize=auto;html=1;entryX=0;entryY=0.5;entryDx=0;entryDy=0;" edge="1" parent="1" source="Tf0zhp-P4J0OVbs3-sou-5" target="050VsRDfMynRpV53Ze59-134">
          <mxGeometry relative="1" as="geometry">
            <Array as="points">
              <mxPoint x="553" y="170" />
              <mxPoint x="553" y="190" />
            </Array>
          </mxGeometry>
        </mxCell>
        <mxCell id="Tf0zhp-P4J0OVbs3-sou-5" value="Registro de Soporte Técnico" style="rounded=0;whiteSpace=wrap;html=1;" vertex="1" parent="1">
          <mxGeometry x="365" y="150" width="120" height="60" as="geometry" />
        </mxCell>
        <mxCell id="Tf0zhp-P4J0OVbs3-sou-84" style="edgeStyle=orthogonalEdgeStyle;rounded=0;orthogonalLoop=1;jettySize=auto;html=1;entryX=0.5;entryY=0;entryDx=0;entryDy=0;" edge="1" parent="1" source="Tf0zhp-P4J0OVbs3-sou-6" target="Tf0zhp-P4J0OVbs3-sou-58">
          <mxGeometry relative="1" as="geometry">
            <Array as="points">
              <mxPoint x="280" y="470" />
              <mxPoint x="210" y="470" />
              <mxPoint x="210" y="490" />
              <mxPoint x="167" y="490" />
            </Array>
          </mxGeometry>
        </mxCell>
        <mxCell id="050VsRDfMynRpV53Ze59-110" style="edgeStyle=orthogonalEdgeStyle;rounded=0;orthogonalLoop=1;jettySize=auto;html=1;entryX=0.5;entryY=0;entryDx=0;entryDy=0;" edge="1" parent="1" source="Tf0zhp-P4J0OVbs3-sou-6" target="Tf0zhp-P4J0OVbs3-sou-49">
          <mxGeometry relative="1" as="geometry" />
        </mxCell>
        <mxCell id="050VsRDfMynRpV53Ze59-113" style="edgeStyle=orthogonalEdgeStyle;rounded=0;orthogonalLoop=1;jettySize=auto;html=1;entryX=0.5;entryY=0;entryDx=0;entryDy=0;" edge="1" parent="1" source="Tf0zhp-P4J0OVbs3-sou-6" target="050VsRDfMynRpV53Ze59-112">
          <mxGeometry relative="1" as="geometry" />
        </mxCell>
        <mxCell id="050VsRDfMynRpV53Ze59-115" style="edgeStyle=orthogonalEdgeStyle;rounded=0;orthogonalLoop=1;jettySize=auto;html=1;entryX=0.5;entryY=0;entryDx=0;entryDy=0;" edge="1" parent="1" source="Tf0zhp-P4J0OVbs3-sou-6" target="050VsRDfMynRpV53Ze59-107">
          <mxGeometry relative="1" as="geometry">
            <Array as="points">
              <mxPoint x="280" y="469" />
              <mxPoint x="270" y="469" />
              <mxPoint x="215" y="470" />
            </Array>
          </mxGeometry>
        </mxCell>
        <mxCell id="050VsRDfMynRpV53Ze59-122" style="edgeStyle=orthogonalEdgeStyle;rounded=0;orthogonalLoop=1;jettySize=auto;html=1;" edge="1" parent="1" source="Tf0zhp-P4J0OVbs3-sou-6" target="050VsRDfMynRpV53Ze59-114">
          <mxGeometry relative="1" as="geometry">
            <Array as="points">
              <mxPoint x="280" y="470" />
              <mxPoint x="400" y="470" />
            </Array>
          </mxGeometry>
        </mxCell>
        <mxCell id="050VsRDfMynRpV53Ze59-123" style="edgeStyle=orthogonalEdgeStyle;rounded=0;orthogonalLoop=1;jettySize=auto;html=1;" edge="1" parent="1" source="Tf0zhp-P4J0OVbs3-sou-6" target="Tf0zhp-P4J0OVbs3-sou-52">
          <mxGeometry relative="1" as="geometry">
            <Array as="points">
              <mxPoint x="280" y="470" />
              <mxPoint x="445" y="470" />
            </Array>
          </mxGeometry>
        </mxCell>
        <mxCell id="050VsRDfMynRpV53Ze59-125" style="edgeStyle=orthogonalEdgeStyle;rounded=0;orthogonalLoop=1;jettySize=auto;html=1;" edge="1" parent="1" source="Tf0zhp-P4J0OVbs3-sou-6" target="050VsRDfMynRpV53Ze59-124">
          <mxGeometry relative="1" as="geometry">
            <Array as="points">
              <mxPoint x="280" y="470" />
              <mxPoint x="355" y="470" />
              <mxPoint x="355" y="432" />
            </Array>
          </mxGeometry>
        </mxCell>
        <mxCell id="Tf0zhp-P4J0OVbs3-sou-6" value="Pagos" style="rounded=0;whiteSpace=wrap;html=1;" vertex="1" parent="1">
          <mxGeometry x="220" y="350" width="120" height="60" as="geometry" />
        </mxCell>
        <mxCell id="Tf0zhp-P4J0OVbs3-sou-88" style="edgeStyle=orthogonalEdgeStyle;rounded=0;orthogonalLoop=1;jettySize=auto;html=1;entryX=0;entryY=0.5;entryDx=0;entryDy=0;" edge="1" parent="1" source="Tf0zhp-P4J0OVbs3-sou-7" target="Tf0zhp-P4J0OVbs3-sou-51">
          <mxGeometry relative="1" as="geometry">
            <Array as="points">
              <mxPoint x="60" y="457" />
            </Array>
          </mxGeometry>
        </mxCell>
        <mxCell id="Tf0zhp-P4J0OVbs3-sou-89" style="edgeStyle=orthogonalEdgeStyle;rounded=0;orthogonalLoop=1;jettySize=auto;html=1;" edge="1" parent="1" source="Tf0zhp-P4J0OVbs3-sou-7" target="Tf0zhp-P4J0OVbs3-sou-50">
          <mxGeometry relative="1" as="geometry">
            <Array as="points">
              <mxPoint x="60" y="510" />
            </Array>
          </mxGeometry>
        </mxCell>
        <mxCell id="Tf0zhp-P4J0OVbs3-sou-90" style="edgeStyle=orthogonalEdgeStyle;rounded=0;orthogonalLoop=1;jettySize=auto;html=1;entryX=1;entryY=0;entryDx=0;entryDy=0;" edge="1" parent="1" source="Tf0zhp-P4J0OVbs3-sou-7" target="Tf0zhp-P4J0OVbs3-sou-47">
          <mxGeometry relative="1" as="geometry">
            <Array as="points">
              <mxPoint x="60" y="492" />
            </Array>
          </mxGeometry>
        </mxCell>
        <mxCell id="050VsRDfMynRpV53Ze59-100" style="edgeStyle=orthogonalEdgeStyle;rounded=0;orthogonalLoop=1;jettySize=auto;html=1;entryX=1;entryY=0.5;entryDx=0;entryDy=0;" edge="1" parent="1" source="Tf0zhp-P4J0OVbs3-sou-7" target="050VsRDfMynRpV53Ze59-99">
          <mxGeometry relative="1" as="geometry" />
        </mxCell>
        <mxCell id="050VsRDfMynRpV53Ze59-105" style="edgeStyle=orthogonalEdgeStyle;rounded=0;orthogonalLoop=1;jettySize=auto;html=1;" edge="1" parent="1" source="Tf0zhp-P4J0OVbs3-sou-7" target="h2PhhprQxnXzh6zu2nuP-1">
          <mxGeometry relative="1" as="geometry">
            <Array as="points">
              <mxPoint x="60" y="445" />
            </Array>
          </mxGeometry>
        </mxCell>
        <mxCell id="050VsRDfMynRpV53Ze59-106" style="edgeStyle=orthogonalEdgeStyle;rounded=0;orthogonalLoop=1;jettySize=auto;html=1;entryX=1.091;entryY=0.724;entryDx=0;entryDy=0;entryPerimeter=0;" edge="1" parent="1" source="Tf0zhp-P4J0OVbs3-sou-7" target="Tf0zhp-P4J0OVbs3-sou-46">
          <mxGeometry relative="1" as="geometry" />
        </mxCell>
        <mxCell id="Tf0zhp-P4J0OVbs3-sou-7" value="Comprobantes de Venta" style="rounded=0;whiteSpace=wrap;html=1;" vertex="1" parent="1">
          <mxGeometry x="40" y="350" width="120" height="60" as="geometry" />
        </mxCell>
        <mxCell id="Tf0zhp-P4J0OVbs3-sou-72" style="edgeStyle=orthogonalEdgeStyle;rounded=0;orthogonalLoop=1;jettySize=auto;html=1;entryX=0.5;entryY=1;entryDx=0;entryDy=0;" edge="1" parent="1" source="Tf0zhp-P4J0OVbs3-sou-11" target="Tf0zhp-P4J0OVbs3-sou-34">
          <mxGeometry relative="1" as="geometry">
            <Array as="points">
              <mxPoint x="440" y="20" />
              <mxPoint x="440" y="20" />
            </Array>
          </mxGeometry>
        </mxCell>
        <mxCell id="050VsRDfMynRpV53Ze59-93" style="edgeStyle=orthogonalEdgeStyle;rounded=0;orthogonalLoop=1;jettySize=auto;html=1;entryX=0.5;entryY=1;entryDx=0;entryDy=0;" edge="1" parent="1" source="Tf0zhp-P4J0OVbs3-sou-11" target="050VsRDfMynRpV53Ze59-92">
          <mxGeometry relative="1" as="geometry">
            <Array as="points">
              <mxPoint x="440" y="10" />
              <mxPoint x="335" y="10" />
            </Array>
          </mxGeometry>
        </mxCell>
        <mxCell id="050VsRDfMynRpV53Ze59-96" style="edgeStyle=orthogonalEdgeStyle;rounded=0;orthogonalLoop=1;jettySize=auto;html=1;" edge="1" parent="1" source="Tf0zhp-P4J0OVbs3-sou-11" target="Tf0zhp-P4J0OVbs3-sou-35">
          <mxGeometry relative="1" as="geometry">
            <Array as="points">
              <mxPoint x="440" y="10" />
              <mxPoint x="385" y="10" />
            </Array>
          </mxGeometry>
        </mxCell>
        <mxCell id="050VsRDfMynRpV53Ze59-98" style="edgeStyle=orthogonalEdgeStyle;rounded=0;orthogonalLoop=1;jettySize=auto;html=1;entryX=0.5;entryY=1;entryDx=0;entryDy=0;" edge="1" parent="1" source="Tf0zhp-P4J0OVbs3-sou-11" target="050VsRDfMynRpV53Ze59-97">
          <mxGeometry relative="1" as="geometry">
            <Array as="points">
              <mxPoint x="440" y="10" />
              <mxPoint x="545" y="10" />
            </Array>
          </mxGeometry>
        </mxCell>
        <mxCell id="Tf0zhp-P4J0OVbs3-sou-11" value="Bajas" style="rounded=0;whiteSpace=wrap;html=1;" vertex="1" parent="1">
          <mxGeometry x="370" y="50" width="120" height="60" as="geometry" />
        </mxCell>
        <mxCell id="Tf0zhp-P4J0OVbs3-sou-18" style="edgeStyle=orthogonalEdgeStyle;rounded=0;orthogonalLoop=1;jettySize=auto;html=1;entryX=-0.008;entryY=0.65;entryDx=0;entryDy=0;entryPerimeter=0;" edge="1" parent="1" source="Tf0zhp-P4J0OVbs3-sou-12" target="Tf0zhp-P4J0OVbs3-sou-11">
          <mxGeometry relative="1" as="geometry">
            <mxPoint x="330" y="80" as="targetPoint" />
            <Array as="points">
              <mxPoint x="330" y="135" />
              <mxPoint x="330" y="89" />
            </Array>
          </mxGeometry>
        </mxCell>
        <mxCell id="050VsRDfMynRpV53Ze59-85" style="edgeStyle=orthogonalEdgeStyle;rounded=0;orthogonalLoop=1;jettySize=auto;html=1;entryX=0;entryY=0.75;entryDx=0;entryDy=0;" edge="1" parent="1" source="Tf0zhp-P4J0OVbs3-sou-12" target="Tf0zhp-P4J0OVbs3-sou-5">
          <mxGeometry relative="1" as="geometry" />
        </mxCell>
        <mxCell id="Tf0zhp-P4J0OVbs3-sou-12" value="Solicita" style="rhombus;whiteSpace=wrap;html=1;" vertex="1" parent="1">
          <mxGeometry x="220" y="110" width="100" height="50" as="geometry" />
        </mxCell>
        <mxCell id="Tf0zhp-P4J0OVbs3-sou-25" value="" style="edgeStyle=orthogonalEdgeStyle;rounded=0;orthogonalLoop=1;jettySize=auto;html=1;" edge="1" parent="1" source="Tf0zhp-P4J0OVbs3-sou-13" target="Tf0zhp-P4J0OVbs3-sou-3">
          <mxGeometry relative="1" as="geometry" />
        </mxCell>
        <mxCell id="Tf0zhp-P4J0OVbs3-sou-13" value="Selecciona" style="rhombus;whiteSpace=wrap;html=1;" vertex="1" parent="1">
          <mxGeometry x="470" y="390" width="100" height="50" as="geometry" />
        </mxCell>
        <mxCell id="050VsRDfMynRpV53Ze59-83" style="edgeStyle=orthogonalEdgeStyle;rounded=0;orthogonalLoop=1;jettySize=auto;html=1;entryX=0;entryY=0.5;entryDx=0;entryDy=0;" edge="1" parent="1" source="Tf0zhp-P4J0OVbs3-sou-14" target="Tf0zhp-P4J0OVbs3-sou-6">
          <mxGeometry relative="1" as="geometry" />
        </mxCell>
        <mxCell id="Tf0zhp-P4J0OVbs3-sou-14" value="Acredita" style="rhombus;whiteSpace=wrap;html=1;" vertex="1" parent="1">
          <mxGeometry x="160" y="270" width="100" height="50" as="geometry" />
        </mxCell>
        <mxCell id="Tf0zhp-P4J0OVbs3-sou-21" value="" style="edgeStyle=orthogonalEdgeStyle;rounded=0;orthogonalLoop=1;jettySize=auto;html=1;" edge="1" parent="1" source="Tf0zhp-P4J0OVbs3-sou-15" target="Tf0zhp-P4J0OVbs3-sou-7">
          <mxGeometry relative="1" as="geometry" />
        </mxCell>
        <mxCell id="Tf0zhp-P4J0OVbs3-sou-15" value="Genera" style="rhombus;whiteSpace=wrap;html=1;rotation=0;" vertex="1" parent="1">
          <mxGeometry x="56.25" y="260" width="87.5" height="50" as="geometry" />
        </mxCell>
        <mxCell id="Tf0zhp-P4J0OVbs3-sou-26" value="id de ficha" style="ellipse;whiteSpace=wrap;html=1;rounded=0;fillColor=#dae8fc;strokeColor=#6c8ebf;" vertex="1" parent="1">
          <mxGeometry x="-120" y="-215" width="50" height="45" as="geometry" />
        </mxCell>
        <mxCell id="Tf0zhp-P4J0OVbs3-sou-28" value="CUIT" style="ellipse;whiteSpace=wrap;html=1;rounded=0;fillColor=#dae8fc;strokeColor=#6c8ebf;" vertex="1" parent="1">
          <mxGeometry x="-120" y="-170" width="50" height="45" as="geometry" />
        </mxCell>
        <mxCell id="Tf0zhp-P4J0OVbs3-sou-30" value="Domicilio" style="ellipse;whiteSpace=wrap;html=1;rounded=0;" vertex="1" parent="1">
          <mxGeometry x="-125" y="-122.5" width="60" height="45" as="geometry" />
        </mxCell>
        <mxCell id="Tf0zhp-P4J0OVbs3-sou-34" value="Fecha" style="ellipse;whiteSpace=wrap;html=1;" vertex="1" parent="1">
          <mxGeometry x="415" y="-70" width="50" height="40" as="geometry" />
        </mxCell>
        <mxCell id="Tf0zhp-P4J0OVbs3-sou-35" value="id cliente" style="ellipse;whiteSpace=wrap;html=1;" vertex="1" parent="1">
          <mxGeometry x="360" y="-70" width="50" height="40" as="geometry" />
        </mxCell>
        <mxCell id="Tf0zhp-P4J0OVbs3-sou-36" value="Fecha" style="ellipse;whiteSpace=wrap;html=1;" vertex="1" parent="1">
          <mxGeometry x="582.5" y="90" width="50" height="40" as="geometry" />
        </mxCell>
        <mxCell id="Tf0zhp-P4J0OVbs3-sou-37" value="Descripción Problema" style="ellipse;whiteSpace=wrap;html=1;" vertex="1" parent="1">
          <mxGeometry x="572.5" y="130" width="75" height="40" as="geometry" />
        </mxCell>
        <mxCell id="Tf0zhp-P4J0OVbs3-sou-38" value="id cliente" style="ellipse;whiteSpace=wrap;html=1;" vertex="1" parent="1">
          <mxGeometry x="582.5" y="50" width="50" height="40" as="geometry" />
        </mxCell>
        <mxCell id="Tf0zhp-P4J0OVbs3-sou-39" value="id de atención" style="ellipse;whiteSpace=wrap;html=1;fillColor=#dae8fc;strokeColor=#6c8ebf;" vertex="1" parent="1">
          <mxGeometry x="585" y="10" width="50" height="40" as="geometry" />
        </mxCell>
        <mxCell id="Tf0zhp-P4J0OVbs3-sou-42" value="Fecha" style="ellipse;whiteSpace=wrap;html=1;" vertex="1" parent="1">
          <mxGeometry x="720" y="455" width="50" height="45" as="geometry" />
        </mxCell>
        <mxCell id="Tf0zhp-P4J0OVbs3-sou-44" value="Descripción del plan." style="ellipse;whiteSpace=wrap;html=1;" vertex="1" parent="1">
          <mxGeometry x="710" y="592.5" width="70" height="60" as="geometry" />
        </mxCell>
        <mxCell id="Tf0zhp-P4J0OVbs3-sou-46" value="id cliente" style="ellipse;whiteSpace=wrap;html=1;" vertex="1" parent="1">
          <mxGeometry x="-90" y="377.5" width="50" height="45" as="geometry" />
        </mxCell>
        <mxCell id="Tf0zhp-P4J0OVbs3-sou-47" value="N°" style="ellipse;whiteSpace=wrap;html=1;" vertex="1" parent="1">
          <mxGeometry x="-90" y="470" width="50" height="45" as="geometry" />
        </mxCell>
        <mxCell id="Tf0zhp-P4J0OVbs3-sou-48" value="id cliente" style="ellipse;whiteSpace=wrap;html=1;" vertex="1" parent="1">
          <mxGeometry x="-90" y="705" width="50" height="45" as="geometry" />
        </mxCell>
        <mxCell id="Tf0zhp-P4J0OVbs3-sou-49" value="Fecha" style="ellipse;whiteSpace=wrap;html=1;" vertex="1" parent="1">
          <mxGeometry x="245" y="528" width="50" height="45" as="geometry" />
        </mxCell>
        <mxCell id="Tf0zhp-P4J0OVbs3-sou-50" value="Importe" style="ellipse;whiteSpace=wrap;html=1;" vertex="1" parent="1">
          <mxGeometry x="86.25" y="485" width="50" height="45" as="geometry" />
        </mxCell>
        <mxCell id="Tf0zhp-P4J0OVbs3-sou-51" value="Fecha de Emisión" style="ellipse;whiteSpace=wrap;html=1;" vertex="1" parent="1">
          <mxGeometry x="91.25" y="435" width="60" height="45" as="geometry" />
        </mxCell>
        <mxCell id="Tf0zhp-P4J0OVbs3-sou-52" value="Importe" style="ellipse;whiteSpace=wrap;html=1;" vertex="1" parent="1">
          <mxGeometry x="425" y="450" width="50" height="45" as="geometry" />
        </mxCell>
        <mxCell id="Tf0zhp-P4J0OVbs3-sou-54" value="Tipo" style="ellipse;whiteSpace=wrap;html=1;rounded=0;" vertex="1" parent="1">
          <mxGeometry x="-125" y="-77.5" width="60" height="45" as="geometry" />
        </mxCell>
        <mxCell id="Tf0zhp-P4J0OVbs3-sou-58" value="id" style="ellipse;whiteSpace=wrap;html=1;fillColor=#dae8fc;strokeColor=#6c8ebf;" vertex="1" parent="1">
          <mxGeometry x="141.88" y="528" width="50" height="45" as="geometry" />
        </mxCell>
        <mxCell id="Tf0zhp-P4J0OVbs3-sou-92" style="edgeStyle=orthogonalEdgeStyle;rounded=0;orthogonalLoop=1;jettySize=auto;html=1;entryX=0.5;entryY=0;entryDx=0;entryDy=0;" edge="1" parent="1" source="Tf0zhp-P4J0OVbs3-sou-61" target="Tf0zhp-P4J0OVbs3-sou-64">
          <mxGeometry relative="1" as="geometry" />
        </mxCell>
        <mxCell id="Tf0zhp-P4J0OVbs3-sou-95" style="edgeStyle=orthogonalEdgeStyle;rounded=0;orthogonalLoop=1;jettySize=auto;html=1;entryX=0.629;entryY=0.025;entryDx=0;entryDy=0;entryPerimeter=0;" edge="1" parent="1" source="Tf0zhp-P4J0OVbs3-sou-61" target="Tf0zhp-P4J0OVbs3-sou-62">
          <mxGeometry relative="1" as="geometry">
            <Array as="points">
              <mxPoint y="660" />
              <mxPoint y="752" />
            </Array>
          </mxGeometry>
        </mxCell>
        <mxCell id="Tf0zhp-P4J0OVbs3-sou-96" style="edgeStyle=orthogonalEdgeStyle;rounded=0;orthogonalLoop=1;jettySize=auto;html=1;entryX=0.5;entryY=0;entryDx=0;entryDy=0;" edge="1" parent="1" source="Tf0zhp-P4J0OVbs3-sou-61" target="Tf0zhp-P4J0OVbs3-sou-63">
          <mxGeometry relative="1" as="geometry" />
        </mxCell>
        <mxCell id="050VsRDfMynRpV53Ze59-32" style="edgeStyle=orthogonalEdgeStyle;rounded=0;orthogonalLoop=1;jettySize=auto;html=1;" edge="1" parent="1" source="Tf0zhp-P4J0OVbs3-sou-61" target="Tf0zhp-P4J0OVbs3-sou-48">
          <mxGeometry relative="1" as="geometry">
            <Array as="points">
              <mxPoint x="-20" y="660" />
              <mxPoint x="-20" y="728" />
            </Array>
          </mxGeometry>
        </mxCell>
        <mxCell id="050VsRDfMynRpV53Ze59-65" style="edgeStyle=orthogonalEdgeStyle;rounded=0;orthogonalLoop=1;jettySize=auto;html=1;" edge="1" parent="1" source="Tf0zhp-P4J0OVbs3-sou-61" target="050VsRDfMynRpV53Ze59-57">
          <mxGeometry relative="1" as="geometry">
            <Array as="points">
              <mxPoint x="90" y="600" />
              <mxPoint x="-210" y="600" />
            </Array>
          </mxGeometry>
        </mxCell>
        <mxCell id="050VsRDfMynRpV53Ze59-111" style="edgeStyle=orthogonalEdgeStyle;rounded=0;orthogonalLoop=1;jettySize=auto;html=1;" edge="1" parent="1" source="Tf0zhp-P4J0OVbs3-sou-61" target="Tf0zhp-P4J0OVbs3-sou-65">
          <mxGeometry relative="1" as="geometry">
            <Array as="points">
              <mxPoint x="169" y="690" />
              <mxPoint x="169" y="690" />
            </Array>
          </mxGeometry>
        </mxCell>
        <mxCell id="050VsRDfMynRpV53Ze59-127" style="edgeStyle=orthogonalEdgeStyle;rounded=0;orthogonalLoop=1;jettySize=auto;html=1;" edge="1" parent="1" source="Tf0zhp-P4J0OVbs3-sou-61" target="050VsRDfMynRpV53Ze59-126">
          <mxGeometry relative="1" as="geometry">
            <Array as="points">
              <mxPoint x="-40" y="660" />
              <mxPoint x="-40" y="660" />
            </Array>
          </mxGeometry>
        </mxCell>
        <mxCell id="Tf0zhp-P4J0OVbs3-sou-61" value="Cuenta Corriente" style="rounded=0;whiteSpace=wrap;html=1;" vertex="1" parent="1">
          <mxGeometry x="75" y="630" width="120" height="60" as="geometry" />
        </mxCell>
        <mxCell id="Tf0zhp-P4J0OVbs3-sou-62" value="Importe Facturado vencido a la fecha" style="ellipse;whiteSpace=wrap;html=1;" vertex="1" parent="1">
          <mxGeometry x="-23.75" y="750" width="70" height="70" as="geometry" />
        </mxCell>
        <mxCell id="Tf0zhp-P4J0OVbs3-sou-63" value="Importe Pagado a la fecha" style="ellipse;whiteSpace=wrap;html=1;" vertex="1" parent="1">
          <mxGeometry x="50" y="750" width="70" height="70" as="geometry" />
        </mxCell>
        <mxCell id="Tf0zhp-P4J0OVbs3-sou-64" value="Estado" style="ellipse;whiteSpace=wrap;html=1;fillColor=#dae8fc;strokeColor=#6c8ebf;" vertex="1" parent="1">
          <mxGeometry x="240" y="767.5" width="50" height="45" as="geometry" />
        </mxCell>
        <mxCell id="Tf0zhp-P4J0OVbs3-sou-65" value="Saldo" style="ellipse;whiteSpace=wrap;html=1;fillColor=#dae8fc;strokeColor=#6c8ebf;" vertex="1" parent="1">
          <mxGeometry x="136.25" y="767.5" width="65" height="45" as="geometry" />
        </mxCell>
        <mxCell id="Tf0zhp-P4J0OVbs3-sou-66" value="Contacto" style="ellipse;whiteSpace=wrap;html=1;rounded=0;" vertex="1" parent="1">
          <mxGeometry x="88.13" y="-30" width="53.75" height="45" as="geometry" />
        </mxCell>
        <mxCell id="w2UQ4sJbIjtqVQUFdgOp-1" value="&lt;b&gt;Tablas&lt;/b&gt;&lt;br&gt;- Clientes&lt;br&gt;- Tipo fiscal&lt;br&gt;-Ficha de Clientes&lt;br&gt;- Servicios Contratables&lt;br&gt;-Estado Cliente&lt;br&gt;-Tipos de Baja&lt;br&gt;- Bajas&lt;br&gt;-Tipos de Comprobante&lt;br&gt;- Comprobantes de Venta&lt;br&gt;-Tipos de Pago&lt;br&gt;-Pagos&lt;br&gt;- Cuenta Corriente&lt;br&gt;-Tipos de Soporte&lt;br&gt;-Tipos de Encuesta&lt;br&gt;- Registro de Soporte Técnico&lt;br&gt;- Servicios Contratados&lt;br&gt;-Auditoría de registro de facturas&lt;br&gt;-Auditoría de registro de pagos.&lt;br&gt;" style="text;html=1;align=center;verticalAlign=middle;resizable=0;points=[];autosize=1;strokeColor=none;fillColor=none;" vertex="1" parent="1">
          <mxGeometry x="-330" y="695" width="200" height="290" as="geometry" />
        </mxCell>
        <mxCell id="w2UQ4sJbIjtqVQUFdgOp-2" value="Importe Mensual" style="ellipse;whiteSpace=wrap;html=1;" vertex="1" parent="1">
          <mxGeometry x="780" y="600" width="50" height="45" as="geometry" />
        </mxCell>
        <mxCell id="h2PhhprQxnXzh6zu2nuP-1" value="id &lt;br&gt;Tipo" style="ellipse;whiteSpace=wrap;html=1;" vertex="1" parent="1">
          <mxGeometry x="-90" y="422.5" width="50" height="45" as="geometry" />
        </mxCell>
        <mxCell id="uj7VZviOf_RXnY-9uS-K-1" value="1" style="text;html=1;align=center;verticalAlign=middle;resizable=0;points=[];autosize=1;strokeColor=none;fillColor=none;" vertex="1" parent="1">
          <mxGeometry x="165" y="155" width="30" height="30" as="geometry" />
        </mxCell>
        <mxCell id="uj7VZviOf_RXnY-9uS-K-3" value="N" style="text;html=1;align=center;verticalAlign=middle;resizable=0;points=[];autosize=1;strokeColor=none;fillColor=none;" vertex="1" parent="1">
          <mxGeometry x="335" y="155" width="30" height="30" as="geometry" />
        </mxCell>
        <mxCell id="uj7VZviOf_RXnY-9uS-K-4" value="N" style="text;html=1;align=center;verticalAlign=middle;resizable=0;points=[];autosize=1;strokeColor=none;fillColor=none;" vertex="1" parent="1">
          <mxGeometry x="405" y="270" width="30" height="30" as="geometry" />
        </mxCell>
        <mxCell id="uj7VZviOf_RXnY-9uS-K-5" value="1" style="text;html=1;align=center;verticalAlign=middle;resizable=0;points=[];autosize=1;strokeColor=none;fillColor=none;" vertex="1" parent="1">
          <mxGeometry x="115" y="215" width="30" height="30" as="geometry" />
        </mxCell>
        <mxCell id="uj7VZviOf_RXnY-9uS-K-6" value="N" style="text;html=1;align=center;verticalAlign=middle;resizable=0;points=[];autosize=1;strokeColor=none;fillColor=none;" vertex="1" parent="1">
          <mxGeometry x="265" y="325" width="30" height="30" as="geometry" />
        </mxCell>
        <mxCell id="uj7VZviOf_RXnY-9uS-K-7" value="N" style="text;html=1;align=center;verticalAlign=middle;resizable=0;points=[];autosize=1;strokeColor=none;fillColor=none;" vertex="1" parent="1">
          <mxGeometry x="35" y="315" width="30" height="30" as="geometry" />
        </mxCell>
        <mxCell id="uj7VZviOf_RXnY-9uS-K-8" value="1" style="text;html=1;align=center;verticalAlign=middle;resizable=0;points=[];autosize=1;strokeColor=none;fillColor=none;" vertex="1" parent="1">
          <mxGeometry x="535" y="435" width="30" height="30" as="geometry" />
        </mxCell>
        <mxCell id="uj7VZviOf_RXnY-9uS-K-9" value="1" style="text;html=1;align=center;verticalAlign=middle;resizable=0;points=[];autosize=1;strokeColor=none;fillColor=none;" vertex="1" parent="1">
          <mxGeometry x="465" y="355" width="30" height="30" as="geometry" />
        </mxCell>
        <mxCell id="uj7VZviOf_RXnY-9uS-K-11" value="1" style="text;html=1;align=center;verticalAlign=middle;resizable=0;points=[];autosize=1;strokeColor=none;fillColor=none;" vertex="1" parent="1">
          <mxGeometry x="15.63" y="200" width="30" height="30" as="geometry" />
        </mxCell>
        <mxCell id="uj7VZviOf_RXnY-9uS-K-12" value="1" style="text;html=1;align=center;verticalAlign=middle;resizable=0;points=[];autosize=1;strokeColor=none;fillColor=none;" vertex="1" parent="1">
          <mxGeometry x="143.75" y="595" width="30" height="30" as="geometry" />
        </mxCell>
        <mxCell id="cJKtPmf7zyKczSiSQ_jG-2" value="N" style="text;html=1;strokeColor=none;fillColor=none;align=center;verticalAlign=middle;whiteSpace=wrap;rounded=0;" vertex="1" parent="1">
          <mxGeometry x="320" y="60" width="60" height="25" as="geometry" />
        </mxCell>
        <mxCell id="050VsRDfMynRpV53Ze59-9" style="edgeStyle=orthogonalEdgeStyle;rounded=0;orthogonalLoop=1;jettySize=auto;html=1;" edge="1" parent="1" source="050VsRDfMynRpV53Ze59-8" target="Tf0zhp-P4J0OVbs3-sou-61">
          <mxGeometry relative="1" as="geometry">
            <mxPoint x="-100" y="580" as="targetPoint" />
            <Array as="points">
              <mxPoint x="-120" y="200" />
              <mxPoint x="-120" y="580" />
              <mxPoint x="135" y="580" />
            </Array>
          </mxGeometry>
        </mxCell>
        <mxCell id="050VsRDfMynRpV53Ze59-11" style="edgeStyle=orthogonalEdgeStyle;rounded=0;orthogonalLoop=1;jettySize=auto;html=1;" edge="1" parent="1" source="050VsRDfMynRpV53Ze59-8" target="Tf0zhp-P4J0OVbs3-sou-12">
          <mxGeometry relative="1" as="geometry" />
        </mxCell>
        <mxCell id="050VsRDfMynRpV53Ze59-13" style="edgeStyle=orthogonalEdgeStyle;rounded=0;orthogonalLoop=1;jettySize=auto;html=1;entryX=0.5;entryY=0;entryDx=0;entryDy=0;" edge="1" parent="1" source="050VsRDfMynRpV53Ze59-8" target="Tf0zhp-P4J0OVbs3-sou-15">
          <mxGeometry relative="1" as="geometry" />
        </mxCell>
        <mxCell id="050VsRDfMynRpV53Ze59-36" style="edgeStyle=orthogonalEdgeStyle;rounded=0;orthogonalLoop=1;jettySize=auto;html=1;" edge="1" parent="1" source="050VsRDfMynRpV53Ze59-39" target="Tf0zhp-P4J0OVbs3-sou-1">
          <mxGeometry relative="1" as="geometry">
            <Array as="points" />
          </mxGeometry>
        </mxCell>
        <mxCell id="050VsRDfMynRpV53Ze59-56" style="edgeStyle=orthogonalEdgeStyle;rounded=0;orthogonalLoop=1;jettySize=auto;html=1;entryX=0.5;entryY=1;entryDx=0;entryDy=0;" edge="1" parent="1" source="050VsRDfMynRpV53Ze59-8" target="050VsRDfMynRpV53Ze59-24">
          <mxGeometry relative="1" as="geometry" />
        </mxCell>
        <mxCell id="050VsRDfMynRpV53Ze59-58" style="edgeStyle=orthogonalEdgeStyle;rounded=0;orthogonalLoop=1;jettySize=auto;html=1;" edge="1" parent="1" source="050VsRDfMynRpV53Ze59-8" target="050VsRDfMynRpV53Ze59-57">
          <mxGeometry relative="1" as="geometry">
            <Array as="points">
              <mxPoint x="-57" y="170" />
              <mxPoint x="-57" y="150" />
            </Array>
          </mxGeometry>
        </mxCell>
        <mxCell id="050VsRDfMynRpV53Ze59-81" style="edgeStyle=orthogonalEdgeStyle;rounded=0;orthogonalLoop=1;jettySize=auto;html=1;" edge="1" parent="1" source="050VsRDfMynRpV53Ze59-8" target="Tf0zhp-P4J0OVbs3-sou-14">
          <mxGeometry relative="1" as="geometry">
            <Array as="points">
              <mxPoint x="210" y="210" />
            </Array>
          </mxGeometry>
        </mxCell>
        <mxCell id="050VsRDfMynRpV53Ze59-84" style="edgeStyle=orthogonalEdgeStyle;rounded=0;orthogonalLoop=1;jettySize=auto;html=1;entryX=0.103;entryY=0.48;entryDx=0;entryDy=0;entryPerimeter=0;" edge="1" parent="1" source="050VsRDfMynRpV53Ze59-8" target="050VsRDfMynRpV53Ze59-82">
          <mxGeometry relative="1" as="geometry" />
        </mxCell>
        <mxCell id="08d1OIZvwK6wu3ycPC6Q-2" style="edgeStyle=orthogonalEdgeStyle;rounded=0;orthogonalLoop=1;jettySize=auto;html=1;entryX=0.5;entryY=1;entryDx=0;entryDy=0;" edge="1" parent="1" target="08d1OIZvwK6wu3ycPC6Q-1">
          <mxGeometry relative="1" as="geometry">
            <mxPoint x="46.25" y="140.00000000000023" as="sourcePoint" />
            <mxPoint x="-30" y="120" as="targetPoint" />
          </mxGeometry>
        </mxCell>
        <mxCell id="050VsRDfMynRpV53Ze59-8" value="Clientes" style="rounded=0;whiteSpace=wrap;html=1;" vertex="1" parent="1">
          <mxGeometry x="46.25" y="155" width="120" height="60" as="geometry" />
        </mxCell>
        <mxCell id="050VsRDfMynRpV53Ze59-21" value="1" style="text;html=1;align=center;verticalAlign=middle;resizable=0;points=[];autosize=1;strokeColor=none;fillColor=none;" vertex="1" parent="1">
          <mxGeometry x="151.25" y="-200" width="30" height="30" as="geometry" />
        </mxCell>
        <mxCell id="050VsRDfMynRpV53Ze59-22" value="1" style="text;html=1;align=center;verticalAlign=middle;resizable=0;points=[];autosize=1;strokeColor=none;fillColor=none;" vertex="1" parent="1">
          <mxGeometry x="130" y="125" width="30" height="30" as="geometry" />
        </mxCell>
        <mxCell id="050VsRDfMynRpV53Ze59-24" value="id cliente" style="ellipse;whiteSpace=wrap;html=1;rounded=0;fillColor=#dae8fc;strokeColor=#6c8ebf;" vertex="1" parent="1">
          <mxGeometry x="70" y="50" width="50" height="55" as="geometry" />
        </mxCell>
        <mxCell id="050VsRDfMynRpV53Ze59-37" value="id cliente" style="ellipse;whiteSpace=wrap;html=1;rounded=0;" vertex="1" parent="1">
          <mxGeometry x="33.13" y="-32.5" width="46.87" height="42.5" as="geometry" />
        </mxCell>
        <mxCell id="050VsRDfMynRpV53Ze59-40" value="" style="edgeStyle=orthogonalEdgeStyle;rounded=0;orthogonalLoop=1;jettySize=auto;html=1;" edge="1" parent="1" source="050VsRDfMynRpV53Ze59-8" target="050VsRDfMynRpV53Ze59-39">
          <mxGeometry relative="1" as="geometry">
            <mxPoint x="106" y="155" as="sourcePoint" />
            <mxPoint x="150" y="-170" as="targetPoint" />
            <Array as="points">
              <mxPoint x="160" y="50" />
              <mxPoint x="250" y="50" />
            </Array>
          </mxGeometry>
        </mxCell>
        <mxCell id="050VsRDfMynRpV53Ze59-39" value="Define" style="rhombus;whiteSpace=wrap;html=1;" vertex="1" parent="1">
          <mxGeometry x="200" y="-195" width="100" height="50" as="geometry" />
        </mxCell>
        <mxCell id="050VsRDfMynRpV53Ze59-72" value="" style="edgeStyle=orthogonalEdgeStyle;rounded=0;orthogonalLoop=1;jettySize=auto;html=1;" edge="1" parent="1" source="050VsRDfMynRpV53Ze59-42" target="050VsRDfMynRpV53Ze59-64">
          <mxGeometry relative="1" as="geometry" />
        </mxCell>
        <mxCell id="050VsRDfMynRpV53Ze59-75" style="edgeStyle=orthogonalEdgeStyle;rounded=0;orthogonalLoop=1;jettySize=auto;html=1;" edge="1" parent="1" source="050VsRDfMynRpV53Ze59-42" target="050VsRDfMynRpV53Ze59-63">
          <mxGeometry relative="1" as="geometry">
            <Array as="points">
              <mxPoint x="-300" y="30" />
              <mxPoint x="-300" y="140" />
            </Array>
          </mxGeometry>
        </mxCell>
        <mxCell id="050VsRDfMynRpV53Ze59-76" style="edgeStyle=orthogonalEdgeStyle;rounded=0;orthogonalLoop=1;jettySize=auto;html=1;entryX=1;entryY=0.5;entryDx=0;entryDy=0;" edge="1" parent="1" source="050VsRDfMynRpV53Ze59-42" target="050VsRDfMynRpV53Ze59-62">
          <mxGeometry relative="1" as="geometry">
            <Array as="points">
              <mxPoint x="-300" y="30" />
              <mxPoint x="-300" y="80" />
            </Array>
          </mxGeometry>
        </mxCell>
        <mxCell id="050VsRDfMynRpV53Ze59-77" style="edgeStyle=orthogonalEdgeStyle;rounded=0;orthogonalLoop=1;jettySize=auto;html=1;" edge="1" parent="1" source="050VsRDfMynRpV53Ze59-42" target="050VsRDfMynRpV53Ze59-70">
          <mxGeometry relative="1" as="geometry">
            <Array as="points">
              <mxPoint x="-300" y="30" />
              <mxPoint x="-300" y="190" />
            </Array>
          </mxGeometry>
        </mxCell>
        <mxCell id="050VsRDfMynRpV53Ze59-78" style="edgeStyle=orthogonalEdgeStyle;rounded=0;orthogonalLoop=1;jettySize=auto;html=1;" edge="1" parent="1" source="050VsRDfMynRpV53Ze59-42" target="050VsRDfMynRpV53Ze59-71">
          <mxGeometry relative="1" as="geometry">
            <Array as="points">
              <mxPoint x="-300" y="30" />
              <mxPoint x="-300" y="257" />
            </Array>
          </mxGeometry>
        </mxCell>
        <mxCell id="050VsRDfMynRpV53Ze59-79" style="edgeStyle=orthogonalEdgeStyle;rounded=0;orthogonalLoop=1;jettySize=auto;html=1;entryX=1;entryY=0.5;entryDx=0;entryDy=0;" edge="1" parent="1" source="050VsRDfMynRpV53Ze59-42" target="050VsRDfMynRpV53Ze59-60">
          <mxGeometry relative="1" as="geometry" />
        </mxCell>
        <mxCell id="050VsRDfMynRpV53Ze59-42" value="Estado Cliente" style="rounded=0;whiteSpace=wrap;html=1;" vertex="1" parent="1">
          <mxGeometry x="-270" width="120" height="60" as="geometry" />
        </mxCell>
        <mxCell id="050VsRDfMynRpV53Ze59-43" value="1" style="text;html=1;align=center;verticalAlign=middle;resizable=0;points=[];autosize=1;strokeColor=none;fillColor=none;" vertex="1" parent="1">
          <mxGeometry x="-8.75" y="140" width="30" height="30" as="geometry" />
        </mxCell>
        <mxCell id="050VsRDfMynRpV53Ze59-54" value="" style="edgeStyle=orthogonalEdgeStyle;rounded=0;orthogonalLoop=1;jettySize=auto;html=1;" edge="1" parent="1" source="050VsRDfMynRpV53Ze59-8" target="050VsRDfMynRpV53Ze59-25">
          <mxGeometry relative="1" as="geometry">
            <mxPoint x="46" y="170" as="sourcePoint" />
            <mxPoint x="70" y="72" as="targetPoint" />
            <Array as="points">
              <mxPoint x="106" y="140" />
              <mxPoint x="30" y="140" />
            </Array>
          </mxGeometry>
        </mxCell>
        <mxCell id="050VsRDfMynRpV53Ze59-25" value="Nombre / Denominación" style="ellipse;whiteSpace=wrap;html=1;rounded=0;" vertex="1" parent="1">
          <mxGeometry x="-8.75" y="50" width="78.75" height="60" as="geometry" />
        </mxCell>
        <mxCell id="050VsRDfMynRpV53Ze59-59" style="edgeStyle=orthogonalEdgeStyle;rounded=0;orthogonalLoop=1;jettySize=auto;html=1;" edge="1" parent="1" source="050VsRDfMynRpV53Ze59-57" target="050VsRDfMynRpV53Ze59-42">
          <mxGeometry relative="1" as="geometry" />
        </mxCell>
        <mxCell id="050VsRDfMynRpV53Ze59-57" value="Define" style="rhombus;whiteSpace=wrap;html=1;" vertex="1" parent="1">
          <mxGeometry x="-260" y="125" width="100" height="50" as="geometry" />
        </mxCell>
        <mxCell id="050VsRDfMynRpV53Ze59-60" value="id estado" style="ellipse;whiteSpace=wrap;html=1;rounded=0;fillColor=#dae8fc;strokeColor=#6c8ebf;" vertex="1" parent="1">
          <mxGeometry x="-380" y="-100" width="50" height="45" as="geometry" />
        </mxCell>
        <mxCell id="050VsRDfMynRpV53Ze59-62" value="estado cliente" style="ellipse;whiteSpace=wrap;html=1;rounded=0;" vertex="1" parent="1">
          <mxGeometry x="-385" y="57.5" width="60" height="45" as="geometry" />
        </mxCell>
        <mxCell id="050VsRDfMynRpV53Ze59-63" value="id Servicio contratado" style="ellipse;whiteSpace=wrap;html=1;rounded=0;" vertex="1" parent="1">
          <mxGeometry x="-385" y="110" width="60" height="50" as="geometry" />
        </mxCell>
        <mxCell id="050VsRDfMynRpV53Ze59-64" value="id cliente" style="ellipse;whiteSpace=wrap;html=1;rounded=0;" vertex="1" parent="1">
          <mxGeometry x="-380" y="-45" width="50" height="45" as="geometry" />
        </mxCell>
        <mxCell id="050VsRDfMynRpV53Ze59-66" value="1" style="text;html=1;align=center;verticalAlign=middle;resizable=0;points=[];autosize=1;strokeColor=none;fillColor=none;" vertex="1" parent="1">
          <mxGeometry x="-250" y="62.5" width="30" height="30" as="geometry" />
        </mxCell>
        <mxCell id="050VsRDfMynRpV53Ze59-67" value="1" style="text;html=1;align=center;verticalAlign=middle;resizable=0;points=[];autosize=1;strokeColor=none;fillColor=none;" vertex="1" parent="1">
          <mxGeometry x="56.25" y="600" width="30" height="30" as="geometry" />
        </mxCell>
        <mxCell id="050VsRDfMynRpV53Ze59-70" value="Adeuda" style="ellipse;whiteSpace=wrap;html=1;rounded=0;" vertex="1" parent="1">
          <mxGeometry x="-385" y="170" width="60" height="50" as="geometry" />
        </mxCell>
        <mxCell id="050VsRDfMynRpV53Ze59-71" value="Saldo" style="ellipse;whiteSpace=wrap;html=1;rounded=0;" vertex="1" parent="1">
          <mxGeometry x="-385" y="230" width="60" height="55" as="geometry" />
        </mxCell>
        <mxCell id="050VsRDfMynRpV53Ze59-86" style="edgeStyle=orthogonalEdgeStyle;rounded=0;orthogonalLoop=1;jettySize=auto;html=1;" edge="1" parent="1" source="050VsRDfMynRpV53Ze59-82" target="Tf0zhp-P4J0OVbs3-sou-2">
          <mxGeometry relative="1" as="geometry">
            <Array as="points">
              <mxPoint x="270" y="310" />
            </Array>
          </mxGeometry>
        </mxCell>
        <mxCell id="050VsRDfMynRpV53Ze59-82" value="Define" style="rhombus;whiteSpace=wrap;html=1;" vertex="1" parent="1">
          <mxGeometry x="220" y="170" width="100" height="50" as="geometry" />
        </mxCell>
        <mxCell id="050VsRDfMynRpV53Ze59-90" value="id" style="ellipse;whiteSpace=wrap;html=1;fillColor=#dae8fc;strokeColor=#6c8ebf;" vertex="1" parent="1">
          <mxGeometry x="720" y="272.5" width="50" height="45" as="geometry" />
        </mxCell>
        <mxCell id="050VsRDfMynRpV53Ze59-92" value="id baja" style="ellipse;whiteSpace=wrap;html=1;fillColor=#dae8fc;strokeColor=#6c8ebf;" vertex="1" parent="1">
          <mxGeometry x="310" y="-70" width="50" height="40" as="geometry" />
        </mxCell>
        <mxCell id="050VsRDfMynRpV53Ze59-97" value="Tipo de baja" style="ellipse;whiteSpace=wrap;html=1;" vertex="1" parent="1">
          <mxGeometry x="520" y="-70" width="50" height="40" as="geometry" />
        </mxCell>
        <mxCell id="050VsRDfMynRpV53Ze59-99" value="id" style="ellipse;whiteSpace=wrap;html=1;fillColor=#dae8fc;strokeColor=#6c8ebf;" vertex="1" parent="1">
          <mxGeometry x="-90" y="325" width="50" height="45" as="geometry" />
        </mxCell>
        <mxCell id="050VsRDfMynRpV53Ze59-107" value="id cliente" style="ellipse;whiteSpace=wrap;html=1;" vertex="1" parent="1">
          <mxGeometry x="190" y="528" width="50" height="45" as="geometry" />
        </mxCell>
        <mxCell id="050VsRDfMynRpV53Ze59-112" value="id Tipo Comprobante" style="ellipse;whiteSpace=wrap;html=1;" vertex="1" parent="1">
          <mxGeometry x="295" y="528" width="75" height="62" as="geometry" />
        </mxCell>
        <mxCell id="050VsRDfMynRpV53Ze59-114" value="id Tipo Pago" style="ellipse;whiteSpace=wrap;html=1;" vertex="1" parent="1">
          <mxGeometry x="375" y="530" width="50" height="52" as="geometry" />
        </mxCell>
        <mxCell id="050VsRDfMynRpV53Ze59-124" value="N°" style="ellipse;whiteSpace=wrap;html=1;" vertex="1" parent="1">
          <mxGeometry x="375" y="410" width="50" height="45" as="geometry" />
        </mxCell>
        <mxCell id="050VsRDfMynRpV53Ze59-126" value="id" style="ellipse;whiteSpace=wrap;html=1;fillColor=#dae8fc;strokeColor=#6c8ebf;" vertex="1" parent="1">
          <mxGeometry x="-130" y="650" width="50" height="45" as="geometry" />
        </mxCell>
        <mxCell id="050VsRDfMynRpV53Ze59-128" value="Calificación" style="ellipse;whiteSpace=wrap;html=1;" vertex="1" parent="1">
          <mxGeometry x="560" y="225" width="68.75" height="35" as="geometry" />
        </mxCell>
        <mxCell id="050VsRDfMynRpV53Ze59-129" value="Motivo&amp;nbsp;&lt;br&gt;&amp;nbsp;Calificación" style="ellipse;whiteSpace=wrap;html=1;" vertex="1" parent="1">
          <mxGeometry x="488.75" y="220" width="62.5" height="50" as="geometry" />
        </mxCell>
        <mxCell id="050VsRDfMynRpV53Ze59-134" value="id Tipo Soporte" style="ellipse;whiteSpace=wrap;html=1;" vertex="1" parent="1">
          <mxGeometry x="620" y="170" width="50" height="40" as="geometry" />
        </mxCell>
        <mxCell id="050VsRDfMynRpV53Ze59-138" value="id cliente" style="ellipse;whiteSpace=wrap;html=1;" vertex="1" parent="1">
          <mxGeometry x="720" y="365" width="50" height="45" as="geometry" />
        </mxCell>
        <mxCell id="050VsRDfMynRpV53Ze59-143" value="id Tipo Servicio" style="ellipse;whiteSpace=wrap;html=1;fillColor=#dae8fc;strokeColor=#6c8ebf;" vertex="1" parent="1">
          <mxGeometry x="660" y="600" width="50" height="45" as="geometry" />
        </mxCell>
        <mxCell id="050VsRDfMynRpV53Ze59-146" value="id Tipo Servicio" style="ellipse;whiteSpace=wrap;html=1;" vertex="1" parent="1">
          <mxGeometry x="720" y="410" width="50" height="45" as="geometry" />
        </mxCell>
        <mxCell id="08d1OIZvwK6wu3ycPC6Q-1" value="CUIT" style="ellipse;whiteSpace=wrap;html=1;rounded=0;" vertex="1" parent="1">
          <mxGeometry x="-58.75" y="55" width="50" height="45" as="geometry" />
        </mxCell>
      </root>
    </mxGraphModel>
  </diagram>
</mxfile>
